<?xml version="1.0" standalone="no"?>
<!DOCTYPE svg PUBLIC "-//W3C//DTD SVG 20010904//EN"
 "http://www.w3.org/TR/2001/REC-SVG-20010904/DTD/svg10.dtd">
<svg version="1.0" xmlns="http://www.w3.org/2000/svg"
 width="265.000000pt" height="271.000000pt" viewBox="0 0 265.000000 271.000000"
 preserveAspectRatio="xMidYMid meet">

<g transform="translate(0.000000,271.000000) scale(0.100000,-0.100000)"
fill="#000000" stroke="none">
<path d="M1184 1580 c-142 -72 -217 -194 -184 -296 17 -49 76 -113 126 -135
38 -17 41 -21 52 -80 19 -102 63 -131 160 -105 96 26 183 92 243 185 48 75 35
167 -34 240 -35 37 -99 70 -134 71 -19 0 -23 6 -23 29 0 114 -86 152 -206 91z
m147 -47 c13 -36 8 -84 -11 -94 -8 -4 -29 -12 -46 -19 -33 -12 -84 -55 -84
-70 0 -18 51 -10 93 14 56 32 119 50 151 42 36 -9 96 -64 112 -103 25 -58 18
-96 -29 -159 -49 -66 -123 -116 -200 -135 -41 -10 -50 -9 -66 5 -10 9 -22 35
-25 58 -9 53 10 74 79 88 70 14 140 80 86 80 -11 0 -42 -12 -69 -26 -54 -28
-117 -40 -156 -30 -57 14 -126 100 -126 157 0 87 149 219 248 219 26 0 34 -5
43 -27z"/>
</g>
</svg>
